<mxfile host="app.diagrams.net" modified="2023-10-15T19:29:19.636Z" agent="Mozilla/5.0 (Windows NT 10.0; Win64; x64; rv:109.0) Gecko/20100101 Firefox/118.0" etag="eCvWEV3cQAdJQbURoJPF" version="22.0.4" type="device">
  <diagram name="Страница — 1" id="9WhRX4E4JsD9WBq3eTZg">
    <mxGraphModel dx="1855" dy="1636" grid="1" gridSize="10" guides="1" tooltips="1" connect="1" arrows="1" fold="1" page="1" pageScale="1" pageWidth="827" pageHeight="1169" math="0" shadow="0">
      <root>
        <mxCell id="0" />
        <mxCell id="1" parent="0" />
        <mxCell id="KAhlrAzQ4yPMb8R67TAE-7" value="user" style="swimlane;fontStyle=0;childLayout=stackLayout;horizontal=1;startSize=30;horizontalStack=0;resizeParent=1;resizeParentMax=0;resizeLast=0;collapsible=1;marginBottom=0;whiteSpace=wrap;html=1;hachureGap=4;fontFamily=Architects Daughter;fontSource=https%3A%2F%2Ffonts.googleapis.com%2Fcss%3Ffamily%3DArchitects%2BDaughter;fontSize=16;" vertex="1" parent="1">
          <mxGeometry x="295" y="-120" width="190" height="160" as="geometry" />
        </mxCell>
        <mxCell id="KAhlrAzQ4yPMb8R67TAE-8" value="IdUser" style="text;strokeColor=none;fillColor=none;align=left;verticalAlign=middle;spacingLeft=4;spacingRight=4;overflow=hidden;points=[[0,0.5],[1,0.5]];portConstraint=eastwest;rotatable=0;whiteSpace=wrap;html=1;fontSize=16;fontFamily=Architects Daughter;" vertex="1" parent="KAhlrAzQ4yPMb8R67TAE-7">
          <mxGeometry y="30" width="190" height="30" as="geometry" />
        </mxCell>
        <mxCell id="KAhlrAzQ4yPMb8R67TAE-9" value="PhoneNumber" style="text;strokeColor=none;fillColor=none;align=left;verticalAlign=middle;spacingLeft=4;spacingRight=4;overflow=hidden;points=[[0,0.5],[1,0.5]];portConstraint=eastwest;rotatable=0;whiteSpace=wrap;html=1;fontSize=16;fontFamily=Architects Daughter;" vertex="1" parent="KAhlrAzQ4yPMb8R67TAE-7">
          <mxGeometry y="60" width="190" height="20" as="geometry" />
        </mxCell>
        <mxCell id="KAhlrAzQ4yPMb8R67TAE-10" value="Email" style="text;strokeColor=none;fillColor=none;align=left;verticalAlign=middle;spacingLeft=4;spacingRight=4;overflow=hidden;points=[[0,0.5],[1,0.5]];portConstraint=eastwest;rotatable=0;whiteSpace=wrap;html=1;fontSize=16;fontFamily=Architects Daughter;" vertex="1" parent="KAhlrAzQ4yPMb8R67TAE-7">
          <mxGeometry y="80" width="190" height="20" as="geometry" />
        </mxCell>
        <mxCell id="KAhlrAzQ4yPMb8R67TAE-11" value="Name" style="text;strokeColor=none;fillColor=none;align=left;verticalAlign=middle;spacingLeft=4;spacingRight=4;overflow=hidden;points=[[0,0.5],[1,0.5]];portConstraint=eastwest;rotatable=0;whiteSpace=wrap;html=1;fontSize=16;fontFamily=Architects Daughter;" vertex="1" parent="KAhlrAzQ4yPMb8R67TAE-7">
          <mxGeometry y="100" width="190" height="20" as="geometry" />
        </mxCell>
        <mxCell id="KAhlrAzQ4yPMb8R67TAE-12" value="Surname" style="text;strokeColor=none;fillColor=none;align=left;verticalAlign=middle;spacingLeft=4;spacingRight=4;overflow=hidden;points=[[0,0.5],[1,0.5]];portConstraint=eastwest;rotatable=0;whiteSpace=wrap;html=1;fontSize=16;fontFamily=Architects Daughter;" vertex="1" parent="KAhlrAzQ4yPMb8R67TAE-7">
          <mxGeometry y="120" width="190" height="20" as="geometry" />
        </mxCell>
        <mxCell id="KAhlrAzQ4yPMb8R67TAE-13" value="City" style="text;strokeColor=none;fillColor=none;align=left;verticalAlign=middle;spacingLeft=4;spacingRight=4;overflow=hidden;points=[[0,0.5],[1,0.5]];portConstraint=eastwest;rotatable=0;whiteSpace=wrap;html=1;fontSize=16;fontFamily=Architects Daughter;" vertex="1" parent="KAhlrAzQ4yPMb8R67TAE-7">
          <mxGeometry y="140" width="190" height="20" as="geometry" />
        </mxCell>
        <mxCell id="KAhlrAzQ4yPMb8R67TAE-14" value="admin" style="swimlane;fontStyle=0;childLayout=stackLayout;horizontal=1;startSize=30;horizontalStack=0;resizeParent=1;resizeParentMax=0;resizeLast=0;collapsible=1;marginBottom=0;whiteSpace=wrap;html=1;hachureGap=4;fontFamily=Architects Daughter;fontSource=https%3A%2F%2Ffonts.googleapis.com%2Fcss%3Ffamily%3DArchitects%2BDaughter;fontSize=16;" vertex="1" parent="1">
          <mxGeometry x="-430" y="535" width="190" height="100" as="geometry" />
        </mxCell>
        <mxCell id="KAhlrAzQ4yPMb8R67TAE-15" value="id" style="text;strokeColor=none;fillColor=none;align=left;verticalAlign=middle;spacingLeft=4;spacingRight=4;overflow=hidden;points=[[0,0.5],[1,0.5]];portConstraint=eastwest;rotatable=0;whiteSpace=wrap;html=1;fontSize=16;fontFamily=Architects Daughter;" vertex="1" parent="KAhlrAzQ4yPMb8R67TAE-14">
          <mxGeometry y="30" width="190" height="30" as="geometry" />
        </mxCell>
        <mxCell id="KAhlrAzQ4yPMb8R67TAE-17" value="login" style="text;strokeColor=none;fillColor=none;align=left;verticalAlign=middle;spacingLeft=4;spacingRight=4;overflow=hidden;points=[[0,0.5],[1,0.5]];portConstraint=eastwest;rotatable=0;whiteSpace=wrap;html=1;fontSize=16;fontFamily=Architects Daughter;" vertex="1" parent="KAhlrAzQ4yPMb8R67TAE-14">
          <mxGeometry y="60" width="190" height="20" as="geometry" />
        </mxCell>
        <mxCell id="KAhlrAzQ4yPMb8R67TAE-18" value="password" style="text;strokeColor=none;fillColor=none;align=left;verticalAlign=middle;spacingLeft=4;spacingRight=4;overflow=hidden;points=[[0,0.5],[1,0.5]];portConstraint=eastwest;rotatable=0;whiteSpace=wrap;html=1;fontSize=16;fontFamily=Architects Daughter;" vertex="1" parent="KAhlrAzQ4yPMb8R67TAE-14">
          <mxGeometry y="80" width="190" height="20" as="geometry" />
        </mxCell>
        <mxCell id="KAhlrAzQ4yPMb8R67TAE-21" value="user_basket" style="swimlane;fontStyle=0;childLayout=stackLayout;horizontal=1;startSize=30;horizontalStack=0;resizeParent=1;resizeParentMax=0;resizeLast=0;collapsible=1;marginBottom=0;whiteSpace=wrap;html=1;hachureGap=4;fontFamily=Architects Daughter;fontSource=https%3A%2F%2Ffonts.googleapis.com%2Fcss%3Ffamily%3DArchitects%2BDaughter;fontSize=16;" vertex="1" parent="1">
          <mxGeometry x="880" y="-140" width="190" height="80" as="geometry" />
        </mxCell>
        <mxCell id="KAhlrAzQ4yPMb8R67TAE-22" value="id_user" style="text;strokeColor=none;fillColor=none;align=left;verticalAlign=middle;spacingLeft=4;spacingRight=4;overflow=hidden;points=[[0,0.5],[1,0.5]];portConstraint=eastwest;rotatable=0;whiteSpace=wrap;html=1;fontSize=16;fontFamily=Architects Daughter;" vertex="1" parent="KAhlrAzQ4yPMb8R67TAE-21">
          <mxGeometry y="30" width="190" height="30" as="geometry" />
        </mxCell>
        <mxCell id="KAhlrAzQ4yPMb8R67TAE-23" value="id_product" style="text;strokeColor=none;fillColor=none;align=left;verticalAlign=middle;spacingLeft=4;spacingRight=4;overflow=hidden;points=[[0,0.5],[1,0.5]];portConstraint=eastwest;rotatable=0;whiteSpace=wrap;html=1;fontSize=16;fontFamily=Architects Daughter;" vertex="1" parent="KAhlrAzQ4yPMb8R67TAE-21">
          <mxGeometry y="60" width="190" height="20" as="geometry" />
        </mxCell>
        <mxCell id="KAhlrAzQ4yPMb8R67TAE-28" value="product" style="swimlane;fontStyle=0;childLayout=stackLayout;horizontal=1;startSize=30;horizontalStack=0;resizeParent=1;resizeParentMax=0;resizeLast=0;collapsible=1;marginBottom=0;whiteSpace=wrap;html=1;hachureGap=4;fontFamily=Architects Daughter;fontSource=https%3A%2F%2Ffonts.googleapis.com%2Fcss%3Ffamily%3DArchitects%2BDaughter;fontSize=16;" vertex="1" parent="1">
          <mxGeometry x="280" y="170" width="220" height="440" as="geometry" />
        </mxCell>
        <mxCell id="KAhlrAzQ4yPMb8R67TAE-29" value="IdProduct" style="text;strokeColor=none;fillColor=none;align=left;verticalAlign=middle;spacingLeft=4;spacingRight=4;overflow=hidden;points=[[0,0.5],[1,0.5]];portConstraint=eastwest;rotatable=0;whiteSpace=wrap;html=1;fontSize=16;fontFamily=Architects Daughter;" vertex="1" parent="KAhlrAzQ4yPMb8R67TAE-28">
          <mxGeometry y="30" width="220" height="30" as="geometry" />
        </mxCell>
        <mxCell id="KAhlrAzQ4yPMb8R67TAE-30" value="decription" style="text;strokeColor=none;fillColor=none;align=left;verticalAlign=middle;spacingLeft=4;spacingRight=4;overflow=hidden;points=[[0,0.5],[1,0.5]];portConstraint=eastwest;rotatable=0;whiteSpace=wrap;html=1;fontSize=16;fontFamily=Architects Daughter;" vertex="1" parent="KAhlrAzQ4yPMb8R67TAE-28">
          <mxGeometry y="60" width="220" height="20" as="geometry" />
        </mxCell>
        <mxCell id="KAhlrAzQ4yPMb8R67TAE-31" value="img" style="text;strokeColor=none;fillColor=none;align=left;verticalAlign=middle;spacingLeft=4;spacingRight=4;overflow=hidden;points=[[0,0.5],[1,0.5]];portConstraint=eastwest;rotatable=0;whiteSpace=wrap;html=1;fontSize=16;fontFamily=Architects Daughter;" vertex="1" parent="KAhlrAzQ4yPMb8R67TAE-28">
          <mxGeometry y="80" width="220" height="20" as="geometry" />
        </mxCell>
        <mxCell id="KAhlrAzQ4yPMb8R67TAE-46" value="composition" style="text;strokeColor=none;fillColor=none;align=left;verticalAlign=middle;spacingLeft=4;spacingRight=4;overflow=hidden;points=[[0,0.5],[1,0.5]];portConstraint=eastwest;rotatable=0;whiteSpace=wrap;html=1;fontSize=16;fontFamily=Architects Daughter;" vertex="1" parent="KAhlrAzQ4yPMb8R67TAE-28">
          <mxGeometry y="100" width="220" height="20" as="geometry" />
        </mxCell>
        <mxCell id="KAhlrAzQ4yPMb8R67TAE-32" value="providerID" style="text;strokeColor=none;fillColor=none;align=left;verticalAlign=middle;spacingLeft=4;spacingRight=4;overflow=hidden;points=[[0,0.5],[1,0.5]];portConstraint=eastwest;rotatable=0;whiteSpace=wrap;html=1;fontSize=16;fontFamily=Architects Daughter;" vertex="1" parent="KAhlrAzQ4yPMb8R67TAE-28">
          <mxGeometry y="120" width="220" height="20" as="geometry" />
        </mxCell>
        <mxCell id="KAhlrAzQ4yPMb8R67TAE-33" value="name" style="text;strokeColor=none;fillColor=none;align=left;verticalAlign=middle;spacingLeft=4;spacingRight=4;overflow=hidden;points=[[0,0.5],[1,0.5]];portConstraint=eastwest;rotatable=0;whiteSpace=wrap;html=1;fontSize=16;fontFamily=Architects Daughter;" vertex="1" parent="KAhlrAzQ4yPMb8R67TAE-28">
          <mxGeometry y="140" width="220" height="20" as="geometry" />
        </mxCell>
        <mxCell id="KAhlrAzQ4yPMb8R67TAE-34" value="price" style="text;strokeColor=none;fillColor=none;align=left;verticalAlign=middle;spacingLeft=4;spacingRight=4;overflow=hidden;points=[[0,0.5],[1,0.5]];portConstraint=eastwest;rotatable=0;whiteSpace=wrap;html=1;fontSize=16;fontFamily=Architects Daughter;" vertex="1" parent="KAhlrAzQ4yPMb8R67TAE-28">
          <mxGeometry y="160" width="220" height="20" as="geometry" />
        </mxCell>
        <mxCell id="KAhlrAzQ4yPMb8R67TAE-35" value="weight" style="text;strokeColor=none;fillColor=none;align=left;verticalAlign=middle;spacingLeft=4;spacingRight=4;overflow=hidden;points=[[0,0.5],[1,0.5]];portConstraint=eastwest;rotatable=0;whiteSpace=wrap;html=1;fontSize=16;fontFamily=Architects Daughter;" vertex="1" parent="KAhlrAzQ4yPMb8R67TAE-28">
          <mxGeometry y="180" width="220" height="20" as="geometry" />
        </mxCell>
        <mxCell id="KAhlrAzQ4yPMb8R67TAE-36" value="mass_fat_percent" style="text;strokeColor=none;fillColor=none;align=left;verticalAlign=middle;spacingLeft=4;spacingRight=4;overflow=hidden;points=[[0,0.5],[1,0.5]];portConstraint=eastwest;rotatable=0;whiteSpace=wrap;html=1;fontSize=16;fontFamily=Architects Daughter;" vertex="1" parent="KAhlrAzQ4yPMb8R67TAE-28">
          <mxGeometry y="200" width="220" height="20" as="geometry" />
        </mxCell>
        <mxCell id="KAhlrAzQ4yPMb8R67TAE-37" value="fat" style="text;strokeColor=none;fillColor=none;align=left;verticalAlign=middle;spacingLeft=4;spacingRight=4;overflow=hidden;points=[[0,0.5],[1,0.5]];portConstraint=eastwest;rotatable=0;whiteSpace=wrap;html=1;fontSize=16;fontFamily=Architects Daughter;" vertex="1" parent="KAhlrAzQ4yPMb8R67TAE-28">
          <mxGeometry y="220" width="220" height="20" as="geometry" />
        </mxCell>
        <mxCell id="KAhlrAzQ4yPMb8R67TAE-38" value="belki" style="text;strokeColor=none;fillColor=none;align=left;verticalAlign=middle;spacingLeft=4;spacingRight=4;overflow=hidden;points=[[0,0.5],[1,0.5]];portConstraint=eastwest;rotatable=0;whiteSpace=wrap;html=1;fontSize=16;fontFamily=Architects Daughter;" vertex="1" parent="KAhlrAzQ4yPMb8R67TAE-28">
          <mxGeometry y="240" width="220" height="20" as="geometry" />
        </mxCell>
        <mxCell id="KAhlrAzQ4yPMb8R67TAE-39" value="jiri" style="text;strokeColor=none;fillColor=none;align=left;verticalAlign=middle;spacingLeft=4;spacingRight=4;overflow=hidden;points=[[0,0.5],[1,0.5]];portConstraint=eastwest;rotatable=0;whiteSpace=wrap;html=1;fontSize=16;fontFamily=Architects Daughter;" vertex="1" parent="KAhlrAzQ4yPMb8R67TAE-28">
          <mxGeometry y="260" width="220" height="20" as="geometry" />
        </mxCell>
        <mxCell id="KAhlrAzQ4yPMb8R67TAE-40" value="yglevodi" style="text;strokeColor=none;fillColor=none;align=left;verticalAlign=middle;spacingLeft=4;spacingRight=4;overflow=hidden;points=[[0,0.5],[1,0.5]];portConstraint=eastwest;rotatable=0;whiteSpace=wrap;html=1;fontSize=16;fontFamily=Architects Daughter;" vertex="1" parent="KAhlrAzQ4yPMb8R67TAE-28">
          <mxGeometry y="280" width="220" height="20" as="geometry" />
        </mxCell>
        <mxCell id="KAhlrAzQ4yPMb8R67TAE-41" value="enegrgiticheskay_cennost" style="text;strokeColor=none;fillColor=none;align=left;verticalAlign=middle;spacingLeft=4;spacingRight=4;overflow=hidden;points=[[0,0.5],[1,0.5]];portConstraint=eastwest;rotatable=0;whiteSpace=wrap;html=1;fontSize=16;fontFamily=Architects Daughter;" vertex="1" parent="KAhlrAzQ4yPMb8R67TAE-28">
          <mxGeometry y="300" width="220" height="20" as="geometry" />
        </mxCell>
        <mxCell id="KAhlrAzQ4yPMb8R67TAE-42" value="srok_godnost" style="text;strokeColor=none;fillColor=none;align=left;verticalAlign=middle;spacingLeft=4;spacingRight=4;overflow=hidden;points=[[0,0.5],[1,0.5]];portConstraint=eastwest;rotatable=0;whiteSpace=wrap;html=1;fontSize=16;fontFamily=Architects Daughter;" vertex="1" parent="KAhlrAzQ4yPMb8R67TAE-28">
          <mxGeometry y="320" width="220" height="20" as="geometry" />
        </mxCell>
        <mxCell id="KAhlrAzQ4yPMb8R67TAE-43" value="ypakovka" style="text;strokeColor=none;fillColor=none;align=left;verticalAlign=middle;spacingLeft=4;spacingRight=4;overflow=hidden;points=[[0,0.5],[1,0.5]];portConstraint=eastwest;rotatable=0;whiteSpace=wrap;html=1;fontSize=16;fontFamily=Architects Daughter;" vertex="1" parent="KAhlrAzQ4yPMb8R67TAE-28">
          <mxGeometry y="340" width="220" height="20" as="geometry" />
        </mxCell>
        <mxCell id="KAhlrAzQ4yPMb8R67TAE-44" value="yslovia_xranenia" style="text;strokeColor=none;fillColor=none;align=left;verticalAlign=middle;spacingLeft=4;spacingRight=4;overflow=hidden;points=[[0,0.5],[1,0.5]];portConstraint=eastwest;rotatable=0;whiteSpace=wrap;html=1;fontSize=16;fontFamily=Architects Daughter;" vertex="1" parent="KAhlrAzQ4yPMb8R67TAE-28">
          <mxGeometry y="360" width="220" height="20" as="geometry" />
        </mxCell>
        <mxCell id="KAhlrAzQ4yPMb8R67TAE-45" value="mesto_poisxojdenia" style="text;strokeColor=none;fillColor=none;align=left;verticalAlign=middle;spacingLeft=4;spacingRight=4;overflow=hidden;points=[[0,0.5],[1,0.5]];portConstraint=eastwest;rotatable=0;whiteSpace=wrap;html=1;fontSize=16;fontFamily=Architects Daughter;" vertex="1" parent="KAhlrAzQ4yPMb8R67TAE-28">
          <mxGeometry y="380" width="220" height="20" as="geometry" />
        </mxCell>
        <mxCell id="KAhlrAzQ4yPMb8R67TAE-47" value="otzivi" style="text;strokeColor=none;fillColor=none;align=left;verticalAlign=middle;spacingLeft=4;spacingRight=4;overflow=hidden;points=[[0,0.5],[1,0.5]];portConstraint=eastwest;rotatable=0;whiteSpace=wrap;html=1;fontSize=16;fontFamily=Architects Daughter;" vertex="1" parent="KAhlrAzQ4yPMb8R67TAE-28">
          <mxGeometry y="400" width="220" height="20" as="geometry" />
        </mxCell>
        <mxCell id="KAhlrAzQ4yPMb8R67TAE-48" value="ocenka" style="text;strokeColor=none;fillColor=none;align=left;verticalAlign=middle;spacingLeft=4;spacingRight=4;overflow=hidden;points=[[0,0.5],[1,0.5]];portConstraint=eastwest;rotatable=0;whiteSpace=wrap;html=1;fontSize=16;fontFamily=Architects Daughter;" vertex="1" parent="KAhlrAzQ4yPMb8R67TAE-28">
          <mxGeometry y="420" width="220" height="20" as="geometry" />
        </mxCell>
        <mxCell id="KAhlrAzQ4yPMb8R67TAE-49" value="user_like" style="swimlane;fontStyle=0;childLayout=stackLayout;horizontal=1;startSize=30;horizontalStack=0;resizeParent=1;resizeParentMax=0;resizeLast=0;collapsible=1;marginBottom=0;whiteSpace=wrap;html=1;hachureGap=4;fontFamily=Architects Daughter;fontSource=https%3A%2F%2Ffonts.googleapis.com%2Fcss%3Ffamily%3DArchitects%2BDaughter;fontSize=16;" vertex="1" parent="1">
          <mxGeometry x="-400" y="270" width="190" height="80" as="geometry" />
        </mxCell>
        <mxCell id="KAhlrAzQ4yPMb8R67TAE-50" value="id_user_like" style="text;strokeColor=none;fillColor=none;align=left;verticalAlign=middle;spacingLeft=4;spacingRight=4;overflow=hidden;points=[[0,0.5],[1,0.5]];portConstraint=eastwest;rotatable=0;whiteSpace=wrap;html=1;fontSize=16;fontFamily=Architects Daughter;" vertex="1" parent="KAhlrAzQ4yPMb8R67TAE-49">
          <mxGeometry y="30" width="190" height="30" as="geometry" />
        </mxCell>
        <mxCell id="KAhlrAzQ4yPMb8R67TAE-51" value="id_product_like" style="text;strokeColor=none;fillColor=none;align=left;verticalAlign=middle;spacingLeft=4;spacingRight=4;overflow=hidden;points=[[0,0.5],[1,0.5]];portConstraint=eastwest;rotatable=0;whiteSpace=wrap;html=1;fontSize=16;fontFamily=Architects Daughter;" vertex="1" parent="KAhlrAzQ4yPMb8R67TAE-49">
          <mxGeometry y="60" width="190" height="20" as="geometry" />
        </mxCell>
        <mxCell id="KAhlrAzQ4yPMb8R67TAE-53" value="catalog" style="swimlane;fontStyle=0;childLayout=stackLayout;horizontal=1;startSize=30;horizontalStack=0;resizeParent=1;resizeParentMax=0;resizeLast=0;collapsible=1;marginBottom=0;whiteSpace=wrap;html=1;hachureGap=4;fontFamily=Architects Daughter;fontSource=https%3A%2F%2Ffonts.googleapis.com%2Fcss%3Ffamily%3DArchitects%2BDaughter;fontSize=16;" vertex="1" parent="1">
          <mxGeometry x="940" y="150" width="190" height="100" as="geometry" />
        </mxCell>
        <mxCell id="KAhlrAzQ4yPMb8R67TAE-54" value="IdCatalog" style="text;strokeColor=none;fillColor=none;align=left;verticalAlign=middle;spacingLeft=4;spacingRight=4;overflow=hidden;points=[[0,0.5],[1,0.5]];portConstraint=eastwest;rotatable=0;whiteSpace=wrap;html=1;fontSize=16;fontFamily=Architects Daughter;" vertex="1" parent="KAhlrAzQ4yPMb8R67TAE-53">
          <mxGeometry y="30" width="190" height="30" as="geometry" />
        </mxCell>
        <mxCell id="KAhlrAzQ4yPMb8R67TAE-55" value="name_catalog" style="text;strokeColor=none;fillColor=none;align=left;verticalAlign=middle;spacingLeft=4;spacingRight=4;overflow=hidden;points=[[0,0.5],[1,0.5]];portConstraint=eastwest;rotatable=0;whiteSpace=wrap;html=1;fontSize=16;fontFamily=Architects Daughter;" vertex="1" parent="KAhlrAzQ4yPMb8R67TAE-53">
          <mxGeometry y="60" width="190" height="20" as="geometry" />
        </mxCell>
        <mxCell id="KAhlrAzQ4yPMb8R67TAE-56" value="decription" style="text;strokeColor=none;fillColor=none;align=left;verticalAlign=middle;spacingLeft=4;spacingRight=4;overflow=hidden;points=[[0,0.5],[1,0.5]];portConstraint=eastwest;rotatable=0;whiteSpace=wrap;html=1;fontSize=16;fontFamily=Architects Daughter;" vertex="1" parent="KAhlrAzQ4yPMb8R67TAE-53">
          <mxGeometry y="80" width="190" height="20" as="geometry" />
        </mxCell>
        <mxCell id="KAhlrAzQ4yPMb8R67TAE-58" value="provider_product" style="swimlane;fontStyle=0;childLayout=stackLayout;horizontal=1;startSize=30;horizontalStack=0;resizeParent=1;resizeParentMax=0;resizeLast=0;collapsible=1;marginBottom=0;whiteSpace=wrap;html=1;hachureGap=4;fontFamily=Architects Daughter;fontSource=https%3A%2F%2Ffonts.googleapis.com%2Fcss%3Ffamily%3DArchitects%2BDaughter;fontSize=16;" vertex="1" parent="1">
          <mxGeometry x="640" y="320" width="190" height="80" as="geometry" />
        </mxCell>
        <mxCell id="KAhlrAzQ4yPMb8R67TAE-59" value="id_provider" style="text;strokeColor=none;fillColor=none;align=left;verticalAlign=middle;spacingLeft=4;spacingRight=4;overflow=hidden;points=[[0,0.5],[1,0.5]];portConstraint=eastwest;rotatable=0;whiteSpace=wrap;html=1;fontSize=16;fontFamily=Architects Daughter;" vertex="1" parent="KAhlrAzQ4yPMb8R67TAE-58">
          <mxGeometry y="30" width="190" height="30" as="geometry" />
        </mxCell>
        <mxCell id="KAhlrAzQ4yPMb8R67TAE-60" value="id_product" style="text;strokeColor=none;fillColor=none;align=left;verticalAlign=middle;spacingLeft=4;spacingRight=4;overflow=hidden;points=[[0,0.5],[1,0.5]];portConstraint=eastwest;rotatable=0;whiteSpace=wrap;html=1;fontSize=16;fontFamily=Architects Daughter;" vertex="1" parent="KAhlrAzQ4yPMb8R67TAE-58">
          <mxGeometry y="60" width="190" height="20" as="geometry" />
        </mxCell>
        <mxCell id="KAhlrAzQ4yPMb8R67TAE-62" value="provider" style="swimlane;fontStyle=0;childLayout=stackLayout;horizontal=1;startSize=30;horizontalStack=0;resizeParent=1;resizeParentMax=0;resizeLast=0;collapsible=1;marginBottom=0;whiteSpace=wrap;html=1;hachureGap=4;fontFamily=Architects Daughter;fontSource=https%3A%2F%2Ffonts.googleapis.com%2Fcss%3Ffamily%3DArchitects%2BDaughter;fontSize=16;" vertex="1" parent="1">
          <mxGeometry x="920" y="320" width="190" height="80" as="geometry" />
        </mxCell>
        <mxCell id="KAhlrAzQ4yPMb8R67TAE-63" value="IdProvider" style="text;strokeColor=none;fillColor=none;align=left;verticalAlign=middle;spacingLeft=4;spacingRight=4;overflow=hidden;points=[[0,0.5],[1,0.5]];portConstraint=eastwest;rotatable=0;whiteSpace=wrap;html=1;fontSize=16;fontFamily=Architects Daughter;" vertex="1" parent="KAhlrAzQ4yPMb8R67TAE-62">
          <mxGeometry y="30" width="190" height="30" as="geometry" />
        </mxCell>
        <mxCell id="KAhlrAzQ4yPMb8R67TAE-64" value="name" style="text;strokeColor=none;fillColor=none;align=left;verticalAlign=middle;spacingLeft=4;spacingRight=4;overflow=hidden;points=[[0,0.5],[1,0.5]];portConstraint=eastwest;rotatable=0;whiteSpace=wrap;html=1;fontSize=16;fontFamily=Architects Daughter;" vertex="1" parent="KAhlrAzQ4yPMb8R67TAE-62">
          <mxGeometry y="60" width="190" height="20" as="geometry" />
        </mxCell>
        <mxCell id="KAhlrAzQ4yPMb8R67TAE-72" value="status" style="swimlane;fontStyle=0;childLayout=stackLayout;horizontal=1;startSize=30;horizontalStack=0;resizeParent=1;resizeParentMax=0;resizeLast=0;collapsible=1;marginBottom=0;whiteSpace=wrap;html=1;hachureGap=4;fontFamily=Architects Daughter;fontSource=https%3A%2F%2Ffonts.googleapis.com%2Fcss%3Ffamily%3DArchitects%2BDaughter;fontSize=16;" vertex="1" parent="1">
          <mxGeometry x="-380" y="680" width="190" height="80" as="geometry" />
        </mxCell>
        <mxCell id="KAhlrAzQ4yPMb8R67TAE-73" value="id_status" style="text;strokeColor=none;fillColor=none;align=left;verticalAlign=middle;spacingLeft=4;spacingRight=4;overflow=hidden;points=[[0,0.5],[1,0.5]];portConstraint=eastwest;rotatable=0;whiteSpace=wrap;html=1;fontSize=16;fontFamily=Architects Daughter;" vertex="1" parent="KAhlrAzQ4yPMb8R67TAE-72">
          <mxGeometry y="30" width="190" height="30" as="geometry" />
        </mxCell>
        <mxCell id="KAhlrAzQ4yPMb8R67TAE-74" value="name" style="text;strokeColor=none;fillColor=none;align=left;verticalAlign=middle;spacingLeft=4;spacingRight=4;overflow=hidden;points=[[0,0.5],[1,0.5]];portConstraint=eastwest;rotatable=0;whiteSpace=wrap;html=1;fontSize=16;fontFamily=Architects Daughter;" vertex="1" parent="KAhlrAzQ4yPMb8R67TAE-72">
          <mxGeometry y="60" width="190" height="20" as="geometry" />
        </mxCell>
        <mxCell id="KAhlrAzQ4yPMb8R67TAE-75" value="order_detail" style="swimlane;fontStyle=0;childLayout=stackLayout;horizontal=1;startSize=30;horizontalStack=0;resizeParent=1;resizeParentMax=0;resizeLast=0;collapsible=1;marginBottom=0;whiteSpace=wrap;html=1;" vertex="1" parent="1">
          <mxGeometry x="20" y="600" width="140" height="180" as="geometry" />
        </mxCell>
        <mxCell id="KAhlrAzQ4yPMb8R67TAE-76" value="id_order" style="text;strokeColor=none;fillColor=none;align=left;verticalAlign=middle;spacingLeft=4;spacingRight=4;overflow=hidden;points=[[0,0.5],[1,0.5]];portConstraint=eastwest;rotatable=0;whiteSpace=wrap;html=1;" vertex="1" parent="KAhlrAzQ4yPMb8R67TAE-75">
          <mxGeometry y="30" width="140" height="30" as="geometry" />
        </mxCell>
        <mxCell id="KAhlrAzQ4yPMb8R67TAE-77" value="product_id_order" style="text;strokeColor=none;fillColor=none;align=left;verticalAlign=middle;spacingLeft=4;spacingRight=4;overflow=hidden;points=[[0,0.5],[1,0.5]];portConstraint=eastwest;rotatable=0;whiteSpace=wrap;html=1;" vertex="1" parent="KAhlrAzQ4yPMb8R67TAE-75">
          <mxGeometry y="60" width="140" height="20" as="geometry" />
        </mxCell>
        <mxCell id="KAhlrAzQ4yPMb8R67TAE-78" value="status_id" style="text;strokeColor=none;fillColor=none;align=left;verticalAlign=middle;spacingLeft=4;spacingRight=4;overflow=hidden;points=[[0,0.5],[1,0.5]];portConstraint=eastwest;rotatable=0;whiteSpace=wrap;html=1;" vertex="1" parent="KAhlrAzQ4yPMb8R67TAE-75">
          <mxGeometry y="80" width="140" height="20" as="geometry" />
        </mxCell>
        <mxCell id="KAhlrAzQ4yPMb8R67TAE-101" value="city_oreder" style="text;strokeColor=none;fillColor=none;align=left;verticalAlign=middle;spacingLeft=4;spacingRight=4;overflow=hidden;points=[[0,0.5],[1,0.5]];portConstraint=eastwest;rotatable=0;whiteSpace=wrap;html=1;" vertex="1" parent="KAhlrAzQ4yPMb8R67TAE-75">
          <mxGeometry y="100" width="140" height="20" as="geometry" />
        </mxCell>
        <mxCell id="KAhlrAzQ4yPMb8R67TAE-102" value="date" style="text;strokeColor=none;fillColor=none;align=left;verticalAlign=middle;spacingLeft=4;spacingRight=4;overflow=hidden;points=[[0,0.5],[1,0.5]];portConstraint=eastwest;rotatable=0;whiteSpace=wrap;html=1;" vertex="1" parent="KAhlrAzQ4yPMb8R67TAE-75">
          <mxGeometry y="120" width="140" height="20" as="geometry" />
        </mxCell>
        <mxCell id="KAhlrAzQ4yPMb8R67TAE-124" value="addres" style="text;strokeColor=none;fillColor=none;align=left;verticalAlign=middle;spacingLeft=4;spacingRight=4;overflow=hidden;points=[[0,0.5],[1,0.5]];portConstraint=eastwest;rotatable=0;whiteSpace=wrap;html=1;" vertex="1" parent="KAhlrAzQ4yPMb8R67TAE-75">
          <mxGeometry y="140" width="140" height="20" as="geometry" />
        </mxCell>
        <mxCell id="KAhlrAzQ4yPMb8R67TAE-125" value="comentariy" style="text;strokeColor=none;fillColor=none;align=left;verticalAlign=middle;spacingLeft=4;spacingRight=4;overflow=hidden;points=[[0,0.5],[1,0.5]];portConstraint=eastwest;rotatable=0;whiteSpace=wrap;html=1;" vertex="1" parent="KAhlrAzQ4yPMb8R67TAE-75">
          <mxGeometry y="160" width="140" height="20" as="geometry" />
        </mxCell>
        <mxCell id="KAhlrAzQ4yPMb8R67TAE-80" value="" style="edgeStyle=entityRelationEdgeStyle;fontSize=12;html=1;endArrow=ERoneToMany;rounded=0;sketch=1;hachureGap=4;jiggle=2;curveFitting=1;fontFamily=Architects Daughter;fontSource=https%3A%2F%2Ffonts.googleapis.com%2Fcss%3Ffamily%3DArchitects%2BDaughter;exitX=1;exitY=0.25;exitDx=0;exitDy=0;entryX=0;entryY=0.5;entryDx=0;entryDy=0;" edge="1" parent="1" source="KAhlrAzQ4yPMb8R67TAE-7" target="KAhlrAzQ4yPMb8R67TAE-22">
          <mxGeometry width="100" height="100" relative="1" as="geometry">
            <mxPoint x="-30" y="-30" as="sourcePoint" />
            <mxPoint x="70" y="-130" as="targetPoint" />
          </mxGeometry>
        </mxCell>
        <mxCell id="KAhlrAzQ4yPMb8R67TAE-81" value="" style="edgeStyle=entityRelationEdgeStyle;fontSize=12;html=1;endArrow=ERoneToMany;rounded=0;sketch=1;hachureGap=4;jiggle=2;curveFitting=1;fontFamily=Architects Daughter;fontSource=https%3A%2F%2Ffonts.googleapis.com%2Fcss%3Ffamily%3DArchitects%2BDaughter;exitX=0;exitY=0.5;exitDx=0;exitDy=0;entryX=1;entryY=0.5;entryDx=0;entryDy=0;" edge="1" parent="1" source="KAhlrAzQ4yPMb8R67TAE-8" target="KAhlrAzQ4yPMb8R67TAE-50">
          <mxGeometry width="100" height="100" relative="1" as="geometry">
            <mxPoint x="170" y="110" as="sourcePoint" />
            <mxPoint x="260" y="-45" as="targetPoint" />
          </mxGeometry>
        </mxCell>
        <mxCell id="KAhlrAzQ4yPMb8R67TAE-82" value="" style="edgeStyle=entityRelationEdgeStyle;fontSize=12;html=1;endArrow=ERoneToMany;rounded=0;sketch=1;hachureGap=4;jiggle=2;curveFitting=1;fontFamily=Architects Daughter;fontSource=https%3A%2F%2Ffonts.googleapis.com%2Fcss%3Ffamily%3DArchitects%2BDaughter;exitX=0;exitY=0.5;exitDx=0;exitDy=0;entryX=1;entryY=0.75;entryDx=0;entryDy=0;" edge="1" parent="1" source="KAhlrAzQ4yPMb8R67TAE-29" target="KAhlrAzQ4yPMb8R67TAE-49">
          <mxGeometry width="100" height="100" relative="1" as="geometry">
            <mxPoint x="-20" y="115" as="sourcePoint" />
            <mxPoint x="-50" y="360" as="targetPoint" />
          </mxGeometry>
        </mxCell>
        <mxCell id="KAhlrAzQ4yPMb8R67TAE-88" value="catalog_product" style="swimlane;fontStyle=0;childLayout=stackLayout;horizontal=1;startSize=30;horizontalStack=0;resizeParent=1;resizeParentMax=0;resizeLast=0;collapsible=1;marginBottom=0;whiteSpace=wrap;html=1;hachureGap=4;fontFamily=Architects Daughter;fontSource=https%3A%2F%2Ffonts.googleapis.com%2Fcss%3Ffamily%3DArchitects%2BDaughter;fontSize=16;" vertex="1" parent="1">
          <mxGeometry x="690" y="170" width="190" height="80" as="geometry" />
        </mxCell>
        <mxCell id="KAhlrAzQ4yPMb8R67TAE-89" value="id_product" style="text;strokeColor=none;fillColor=none;align=left;verticalAlign=middle;spacingLeft=4;spacingRight=4;overflow=hidden;points=[[0,0.5],[1,0.5]];portConstraint=eastwest;rotatable=0;whiteSpace=wrap;html=1;fontSize=16;fontFamily=Architects Daughter;" vertex="1" parent="KAhlrAzQ4yPMb8R67TAE-88">
          <mxGeometry y="30" width="190" height="30" as="geometry" />
        </mxCell>
        <mxCell id="KAhlrAzQ4yPMb8R67TAE-90" value="id_catalog" style="text;strokeColor=none;fillColor=none;align=left;verticalAlign=middle;spacingLeft=4;spacingRight=4;overflow=hidden;points=[[0,0.5],[1,0.5]];portConstraint=eastwest;rotatable=0;whiteSpace=wrap;html=1;fontSize=16;fontFamily=Architects Daughter;" vertex="1" parent="KAhlrAzQ4yPMb8R67TAE-88">
          <mxGeometry y="60" width="190" height="20" as="geometry" />
        </mxCell>
        <mxCell id="KAhlrAzQ4yPMb8R67TAE-92" value="" style="edgeStyle=entityRelationEdgeStyle;fontSize=12;html=1;endArrow=ERoneToMany;rounded=0;sketch=1;hachureGap=4;jiggle=2;curveFitting=1;fontFamily=Architects Daughter;fontSource=https%3A%2F%2Ffonts.googleapis.com%2Fcss%3Ffamily%3DArchitects%2BDaughter;exitX=1;exitY=0.5;exitDx=0;exitDy=0;entryX=0;entryY=0.5;entryDx=0;entryDy=0;" edge="1" parent="1" source="KAhlrAzQ4yPMb8R67TAE-29" target="KAhlrAzQ4yPMb8R67TAE-89">
          <mxGeometry width="100" height="100" relative="1" as="geometry">
            <mxPoint x="290" y="225" as="sourcePoint" />
            <mxPoint x="-80" y="350" as="targetPoint" />
          </mxGeometry>
        </mxCell>
        <mxCell id="KAhlrAzQ4yPMb8R67TAE-93" value="" style="edgeStyle=entityRelationEdgeStyle;fontSize=12;html=1;endArrow=ERmany;startArrow=ERmany;rounded=0;sketch=1;hachureGap=4;jiggle=2;curveFitting=1;fontFamily=Architects Daughter;fontSource=https%3A%2F%2Ffonts.googleapis.com%2Fcss%3Ffamily%3DArchitects%2BDaughter;exitX=0;exitY=0.5;exitDx=0;exitDy=0;entryX=1;entryY=0.5;entryDx=0;entryDy=0;" edge="1" parent="1" source="KAhlrAzQ4yPMb8R67TAE-54" target="KAhlrAzQ4yPMb8R67TAE-90">
          <mxGeometry width="100" height="100" relative="1" as="geometry">
            <mxPoint x="460" y="530" as="sourcePoint" />
            <mxPoint x="780" y="580" as="targetPoint" />
          </mxGeometry>
        </mxCell>
        <mxCell id="KAhlrAzQ4yPMb8R67TAE-94" value="order" style="swimlane;fontStyle=0;childLayout=stackLayout;horizontal=1;startSize=30;horizontalStack=0;resizeParent=1;resizeParentMax=0;resizeLast=0;collapsible=1;marginBottom=0;whiteSpace=wrap;html=1;" vertex="1" parent="1">
          <mxGeometry x="560" y="650" width="140" height="80" as="geometry" />
        </mxCell>
        <mxCell id="KAhlrAzQ4yPMb8R67TAE-95" value="IdOrder" style="text;strokeColor=none;fillColor=none;align=left;verticalAlign=middle;spacingLeft=4;spacingRight=4;overflow=hidden;points=[[0,0.5],[1,0.5]];portConstraint=eastwest;rotatable=0;whiteSpace=wrap;html=1;" vertex="1" parent="KAhlrAzQ4yPMb8R67TAE-94">
          <mxGeometry y="30" width="140" height="30" as="geometry" />
        </mxCell>
        <mxCell id="KAhlrAzQ4yPMb8R67TAE-96" value="id_client___" style="text;strokeColor=none;fillColor=none;align=left;verticalAlign=middle;spacingLeft=4;spacingRight=4;overflow=hidden;points=[[0,0.5],[1,0.5]];portConstraint=eastwest;rotatable=0;whiteSpace=wrap;html=1;" vertex="1" parent="KAhlrAzQ4yPMb8R67TAE-94">
          <mxGeometry y="60" width="140" height="20" as="geometry" />
        </mxCell>
        <mxCell id="KAhlrAzQ4yPMb8R67TAE-98" value="" style="edgeStyle=entityRelationEdgeStyle;fontSize=12;html=1;endArrow=ERmandOne;startArrow=ERmandOne;rounded=0;sketch=1;hachureGap=4;jiggle=2;curveFitting=1;fontFamily=Architects Daughter;fontSource=https%3A%2F%2Ffonts.googleapis.com%2Fcss%3Ffamily%3DArchitects%2BDaughter;entryX=1;entryY=0.5;entryDx=0;entryDy=0;exitX=0;exitY=0.5;exitDx=0;exitDy=0;" edge="1" parent="1" source="KAhlrAzQ4yPMb8R67TAE-95" target="KAhlrAzQ4yPMb8R67TAE-76">
          <mxGeometry width="100" height="100" relative="1" as="geometry">
            <mxPoint x="40" y="670" as="sourcePoint" />
            <mxPoint x="140" y="570" as="targetPoint" />
          </mxGeometry>
        </mxCell>
        <mxCell id="KAhlrAzQ4yPMb8R67TAE-99" value="" style="edgeStyle=entityRelationEdgeStyle;fontSize=12;html=1;endArrow=ERoneToMany;rounded=0;sketch=1;hachureGap=4;jiggle=2;curveFitting=1;fontFamily=Architects Daughter;fontSource=https%3A%2F%2Ffonts.googleapis.com%2Fcss%3Ffamily%3DArchitects%2BDaughter;exitX=0;exitY=0.5;exitDx=0;exitDy=0;entryX=1;entryY=0.5;entryDx=0;entryDy=0;" edge="1" parent="1" source="KAhlrAzQ4yPMb8R67TAE-29" target="KAhlrAzQ4yPMb8R67TAE-77">
          <mxGeometry width="100" height="100" relative="1" as="geometry">
            <mxPoint x="40" y="460" as="sourcePoint" />
            <mxPoint x="140" y="360" as="targetPoint" />
          </mxGeometry>
        </mxCell>
        <mxCell id="KAhlrAzQ4yPMb8R67TAE-100" value="" style="edgeStyle=entityRelationEdgeStyle;fontSize=12;html=1;endArrow=ERmandOne;startArrow=ERmandOne;rounded=0;sketch=1;hachureGap=4;jiggle=2;curveFitting=1;fontFamily=Architects Daughter;fontSource=https%3A%2F%2Ffonts.googleapis.com%2Fcss%3Ffamily%3DArchitects%2BDaughter;entryX=0;entryY=0.5;entryDx=0;entryDy=0;exitX=1;exitY=0.5;exitDx=0;exitDy=0;" edge="1" parent="1" source="KAhlrAzQ4yPMb8R67TAE-73" target="KAhlrAzQ4yPMb8R67TAE-78">
          <mxGeometry width="100" height="100" relative="1" as="geometry">
            <mxPoint x="-210" y="760" as="sourcePoint" />
            <mxPoint x="140" y="670" as="targetPoint" />
            <Array as="points">
              <mxPoint x="-140" y="730" />
              <mxPoint x="-150" y="730" />
              <mxPoint x="-140" y="685" />
              <mxPoint x="-130" y="650" />
            </Array>
          </mxGeometry>
        </mxCell>
        <mxCell id="KAhlrAzQ4yPMb8R67TAE-108" value="" style="edgeStyle=entityRelationEdgeStyle;fontSize=12;html=1;endArrow=ERmandOne;startArrow=ERmandOne;rounded=0;sketch=1;hachureGap=4;jiggle=2;curveFitting=1;fontFamily=Architects Daughter;fontSource=https%3A%2F%2Ffonts.googleapis.com%2Fcss%3Ffamily%3DArchitects%2BDaughter;entryX=0;entryY=0.5;entryDx=0;entryDy=0;" edge="1" parent="1" target="KAhlrAzQ4yPMb8R67TAE-60">
          <mxGeometry width="100" height="100" relative="1" as="geometry">
            <mxPoint x="500" y="220" as="sourcePoint" />
            <mxPoint x="690" y="330" as="targetPoint" />
          </mxGeometry>
        </mxCell>
        <mxCell id="KAhlrAzQ4yPMb8R67TAE-109" value="" style="edgeStyle=entityRelationEdgeStyle;fontSize=12;html=1;endArrow=ERmandOne;startArrow=ERmandOne;rounded=0;sketch=1;hachureGap=4;jiggle=2;curveFitting=1;fontFamily=Architects Daughter;fontSource=https%3A%2F%2Ffonts.googleapis.com%2Fcss%3Ffamily%3DArchitects%2BDaughter;entryX=0;entryY=0.5;entryDx=0;entryDy=0;exitX=1;exitY=0.5;exitDx=0;exitDy=0;" edge="1" parent="1" source="KAhlrAzQ4yPMb8R67TAE-59" target="KAhlrAzQ4yPMb8R67TAE-63">
          <mxGeometry width="100" height="100" relative="1" as="geometry">
            <mxPoint x="510" y="230" as="sourcePoint" />
            <mxPoint x="650" y="400" as="targetPoint" />
          </mxGeometry>
        </mxCell>
        <mxCell id="KAhlrAzQ4yPMb8R67TAE-110" value="" style="edgeStyle=entityRelationEdgeStyle;fontSize=12;html=1;endArrow=ERoneToMany;rounded=0;sketch=1;hachureGap=4;jiggle=2;curveFitting=1;fontFamily=Architects Daughter;fontSource=https%3A%2F%2Ffonts.googleapis.com%2Fcss%3Ffamily%3DArchitects%2BDaughter;entryX=0;entryY=0.5;entryDx=0;entryDy=0;" edge="1" parent="1" target="KAhlrAzQ4yPMb8R67TAE-23">
          <mxGeometry width="100" height="100" relative="1" as="geometry">
            <mxPoint x="500" y="210" as="sourcePoint" />
            <mxPoint x="480" y="-30" as="targetPoint" />
          </mxGeometry>
        </mxCell>
        <mxCell id="KAhlrAzQ4yPMb8R67TAE-111" value="&lt;font style=&quot;font-size: 16px;&quot;&gt;PK&lt;/font&gt;" style="text;html=1;strokeColor=none;fillColor=none;align=center;verticalAlign=middle;whiteSpace=wrap;rounded=0;fontSize=20;fontFamily=Architects Daughter;" vertex="1" parent="1">
          <mxGeometry x="230" y="200" width="60" height="30" as="geometry" />
        </mxCell>
        <mxCell id="KAhlrAzQ4yPMb8R67TAE-112" style="edgeStyle=orthogonalEdgeStyle;rounded=0;sketch=1;hachureGap=4;jiggle=2;curveFitting=1;orthogonalLoop=1;jettySize=auto;html=1;exitX=0.5;exitY=1;exitDx=0;exitDy=0;fontFamily=Architects Daughter;fontSource=https%3A%2F%2Ffonts.googleapis.com%2Fcss%3Ffamily%3DArchitects%2BDaughter;fontSize=16;" edge="1" parent="1" source="KAhlrAzQ4yPMb8R67TAE-111" target="KAhlrAzQ4yPMb8R67TAE-111">
          <mxGeometry relative="1" as="geometry" />
        </mxCell>
        <mxCell id="KAhlrAzQ4yPMb8R67TAE-117" value="&lt;font style=&quot;font-size: 16px;&quot;&gt;PK&lt;/font&gt;" style="text;html=1;strokeColor=none;fillColor=none;align=center;verticalAlign=middle;whiteSpace=wrap;rounded=0;fontSize=20;fontFamily=Architects Daughter;" vertex="1" parent="1">
          <mxGeometry x="-430" y="705" width="60" height="30" as="geometry" />
        </mxCell>
        <mxCell id="KAhlrAzQ4yPMb8R67TAE-119" value="" style="edgeStyle=entityRelationEdgeStyle;fontSize=12;html=1;endArrow=ERmandOne;startArrow=ERmandOne;rounded=0;sketch=1;hachureGap=4;jiggle=2;curveFitting=1;fontFamily=Architects Daughter;fontSource=https%3A%2F%2Ffonts.googleapis.com%2Fcss%3Ffamily%3DArchitects%2BDaughter;exitX=0;exitY=0.5;exitDx=0;exitDy=0;entryX=1.015;entryY=0.798;entryDx=0;entryDy=0;entryPerimeter=0;" edge="1" parent="1" source="KAhlrAzQ4yPMb8R67TAE-96" target="KAhlrAzQ4yPMb8R67TAE-8">
          <mxGeometry width="100" height="100" relative="1" as="geometry">
            <mxPoint x="-190" y="590" as="sourcePoint" />
            <mxPoint x="-90" y="490" as="targetPoint" />
            <Array as="points">
              <mxPoint x="530" y="350" />
            </Array>
          </mxGeometry>
        </mxCell>
        <mxCell id="KAhlrAzQ4yPMb8R67TAE-120" value="&lt;font style=&quot;font-size: 16px;&quot;&gt;PK&lt;/font&gt;" style="text;html=1;strokeColor=none;fillColor=none;align=center;verticalAlign=middle;whiteSpace=wrap;rounded=0;fontSize=20;fontFamily=Architects Daughter;" vertex="1" parent="1">
          <mxGeometry x="-30" y="630" width="60" height="30" as="geometry" />
        </mxCell>
        <mxCell id="KAhlrAzQ4yPMb8R67TAE-121" value="&lt;font style=&quot;font-size: 16px;&quot;&gt;PK&lt;/font&gt;" style="text;html=1;strokeColor=none;fillColor=none;align=center;verticalAlign=middle;whiteSpace=wrap;rounded=0;fontSize=20;fontFamily=Architects Daughter;" vertex="1" parent="1">
          <mxGeometry x="1100" y="345" width="60" height="30" as="geometry" />
        </mxCell>
        <mxCell id="KAhlrAzQ4yPMb8R67TAE-122" value="&lt;font style=&quot;font-size: 16px;&quot;&gt;PK&lt;/font&gt;" style="text;html=1;strokeColor=none;fillColor=none;align=center;verticalAlign=middle;whiteSpace=wrap;rounded=0;fontSize=20;fontFamily=Architects Daughter;" vertex="1" parent="1">
          <mxGeometry x="1120" y="180" width="60" height="30" as="geometry" />
        </mxCell>
        <mxCell id="KAhlrAzQ4yPMb8R67TAE-123" value="&lt;font style=&quot;font-size: 16px;&quot;&gt;PK&lt;/font&gt;" style="text;html=1;strokeColor=none;fillColor=none;align=center;verticalAlign=middle;whiteSpace=wrap;rounded=0;fontSize=20;fontFamily=Architects Daughter;" vertex="1" parent="1">
          <mxGeometry x="210" y="-90" width="60" height="30" as="geometry" />
        </mxCell>
      </root>
    </mxGraphModel>
  </diagram>
</mxfile>
